<svg xmlns="http://www.w3.org/2000/svg" width="16" height="16" viewBox="0 0 16 16">
    <path fill="#0DABED" fill-rule="nonzero" d="M8.065 15.907c-.403 0-.808-.03-1.212-.092A7.945 7.945 0 0 1 .335 9.944a7.804 7.804 0 0 1-.151-3.136A7.823 7.823 0 0 1 1.27 3.859a7.9 7.9 0 0 1 2.068-2.228A7.964 7.964 0 0 1 9.254.185c1.386.21 2.693.78 3.78 1.647a7.958 7.958 0 0 1 2.393 3.187.543.543 0 0 1-.3.71.55.55 0 0 1-.714-.299 6.896 6.896 0 0 0-5.324-4.17C5.347.695 1.839 3.257 1.267 6.973c-.57 3.716 2.01 7.2 5.751 7.767 3.742.568 7.25-1.995 7.821-5.71a.547.547 0 0 1 1.084.163 7.823 7.823 0 0 1-1.086 2.949 7.9 7.9 0 0 1-2.068 2.228 7.957 7.957 0 0 1-4.704 1.538z"/>
</svg>
